<?xml version="1.0" encoding="utf-8"?>
<!-- Generator: Adobe Illustrator 24.1.3, SVG Export Plug-In . SVG Version: 6.00 Build 0)  -->
<svg version="1.1" id="Layer_3" xmlns="http://www.w3.org/2000/svg" xmlns:xlink="http://www.w3.org/1999/xlink" x="0px" y="0px"
	 viewBox="0 0 1000 800" style="enable-background:new 0 0 1000 800;" xml:space="preserve">
<style type="text/css">
	.st0{fill:#231F20;}
	.st1{fill:#5A5A5D;}
	.st2{fill:#1F76BA;}
</style>
<symbol  id="New_Symbol" viewBox="-330.73 -207 661.47 414">
	<rect id="XMLID_41_" x="-330.73" y="153" class="st0" width="661.47" height="54"/>
	<rect id="XMLID_40_" x="-330.73" y="63" class="st0" width="661.47" height="54"/>
	<rect id="XMLID_33_" x="-330.73" y="-27" class="st0" width="661.47" height="54"/>
	<rect id="XMLID_32_" x="-330.73" y="-117" class="st0" width="661.47" height="54"/>
	<rect id="XMLID_31_" x="-330.73" y="-207" class="st0" width="661.47" height="54"/>
</symbol>
<g id="XMLID_676_">
	<path id="XMLID_678_" class="st1" d="M500,193c-114.32,0-207,92.68-207,207c0,86.99,53.67,161.44,129.7,192.07V401.85l77.3,77.3
		v-61.27l-77.3-77.3l-43.32-43.32v61.27v170.63c-34.55-32.27-56.16-78.21-56.16-129.21c0-97.63,79.15-176.78,176.78-176.78
		c25.01,0,48.8,5.2,70.37,14.57l22.72-22.67C565.1,200.96,533.48,193,500,193z"/>
	<path id="XMLID_677_" class="st2" d="M638.09,245.8v43.77c24.21,30.25,38.7,68.62,38.7,110.38c0,51-21.61,96.95-56.16,129.22
		V218.71L500,338.68v61.27l77.3-77.3v236.33c-23.35,11.37-49.58,17.76-77.3,17.76c-22.18,0-43.4-4.1-62.95-11.55v32.04
		c19.85,6.34,41,9.78,62.95,9.78c114.32,0,207-92.68,207-207C707,338.74,680.38,283.7,638.09,245.8z"/>
</g>
</svg>
